<?xml version="1.0" standalone="no"?>
<!DOCTYPE svg PUBLIC "-//W3C//DTD SVG 20010904//EN"
 "http://www.w3.org/TR/2001/REC-SVG-20010904/DTD/svg10.dtd">
<svg version="1.0" xmlns="http://www.w3.org/2000/svg"
 width="558.000000pt" height="558.000000pt" viewBox="0 0 558.000000 558.000000"
 preserveAspectRatio="xMidYMid meet">
<metadata>
Created by potrace 1.11, written by Peter Selinger 2001-2013
</metadata>
<g transform="translate(0.000000,558.000000) scale(0.100000,-0.100000)"
fill="#000000" stroke="none">
<path d="M0 2790 l0 -2790 2790 0 2790 0 0 2790 0 2790 -2790 0 -2790 0 0
-2790z m5320 1125 l0 -515 -170 0 -170 0 0 170 0 170 -175 0 -175 0 0 170 0
170 -340 0 -340 0 0 -510 0 -510 170 0 170 0 0 170 0 170 170 0 170 0 0 -515
0 -515 -170 0 -170 0 0 170 0 170 -170 0 -170 0 0 -685 0 -685 340 0 340 0 0
170 0 170 175 0 175 0 0 175 0 175 170 0 170 0 0 -520 0 -520 -1205 0 -1205 0
0 175 0 175 175 0 175 0 0 1370 0 1370 -175 0 -175 0 0 175 0 175 1205 0 1205
0 0 -515z m-3020 335 l0 -170 175 0 175 0 0 -1375 0 -1375 -175 0 -175 0 0
-175 0 -175 -860 0 -860 0 0 175 0 175 -170 0 -170 0 0 1375 0 1375 170 0 170
0 0 170 0 170 860 0 860 0 0 -170z"/>
<path d="M930 2700 l0 -1370 515 0 515 0 0 1370 0 1370 -515 0 -515 0 0 -1370z"/>
</g>
</svg>
